<svg xmlns="http://www.w3.org/2000/svg" width="135" height="108" viewBox="0 0 135 108">
  <path id="admin-icon" d="M131.266,57.185l-24.3-9.492a6.537,6.537,0,0,0-4.683,0l-24.3,9.492a5.7,5.7,0,0,0-3.734,5.252c0,23.541,14.491,39.825,28.034,45.12a6.544,6.544,0,0,0,4.683,0C117.788,103.338,135,88.7,135,62.438A5.7,5.7,0,0,0,131.266,57.185ZM104.625,97.537V57.649l20.145,7.868c-1.181,18.373-12.846,28.561-20.145,32.02ZM47.25,54a27,27,0,1,0-27-27A27,27,0,0,0,47.25,54ZM67.5,62.438a11.98,11.98,0,0,1,.232-1.519C67.2,60.9,66.7,60.75,66.15,60.75H62.627a36.719,36.719,0,0,1-30.755,0H28.35A28.357,28.357,0,0,0,0,89.1v8.775A10.128,10.128,0,0,0,10.125,108h74.25a10.381,10.381,0,0,0,4.05-.844C77.034,98.107,67.5,82.54,67.5,62.438Z" fill="#31d0b5"/>
</svg>
