<svg xmlns="http://www.w3.org/2000/svg" width="36.567" height="27.425" viewBox="0 0 36.567 27.425">
  <path id="disconnect" d="M25.14,74.934A1.146,1.146,0,0,0,24,73.792H13.712V67.085a.571.571,0,0,0-.971-.407L2.628,76.9a1.142,1.142,0,0,0,0,1.621L12.741,88.74a.569.569,0,0,0,.971-.407V81.626H24a1.146,1.146,0,0,0,1.143-1.143V74.934m2.285,0v5.549A3.429,3.429,0,0,1,24,83.912H16v4.421a2.855,2.855,0,0,1-4.871,2.021L1.007,80.141a3.431,3.431,0,0,1,0-4.856l10.12-10.22A2.856,2.856,0,0,1,16,67.085v4.421h8A3.434,3.434,0,0,1,27.425,74.934Zm9.142-7.506V88a3.429,3.429,0,0,1-3.428,3.428H23.711a.86.86,0,0,1-.857-.857V90a.86.86,0,0,1,.857-.857h9.427A1.146,1.146,0,0,0,34.281,88V67.428a1.146,1.146,0,0,0-1.143-1.143H23.711a.86.86,0,0,1-.857-.857v-.571A.86.86,0,0,1,23.711,64h9.427A3.429,3.429,0,0,1,36.567,67.428Z" transform="translate(0 -64)" fill="#fff"/>
</svg>
